<svg xmlns="http://www.w3.org/2000/svg" xmlns:xlink="http://www.w3.org/1999/xlink" width="500" zoomAndPan="magnify" viewBox="0 0 375 374.999991" height="500" preserveAspectRatio="xMidYMid meet" version="1.0"><defs><g/><clipPath id="0b2c6e1b43"><path d="M 163.492188 129.191406 L 189.304688 129.191406 L 189.304688 155.019531 L 163.492188 155.019531 Z M 163.492188 129.191406 " clip-rule="nonzero"/></clipPath><clipPath id="f91c429506"><path d="M 184 123.578125 L 194.992188 123.578125 L 194.992188 135 L 184 135 Z M 184 123.578125 " clip-rule="nonzero"/></clipPath><clipPath id="aaf396167a"><path d="M 39 139.917969 L 335 139.917969 L 335 255 L 39 255 Z M 39 139.917969 " clip-rule="nonzero"/></clipPath><clipPath id="f65b6f5b82"><path d="M 276.773438 129.292969 L 286 129.292969 L 286 151.792969 L 276.773438 151.792969 Z M 276.773438 129.292969 " clip-rule="nonzero"/></clipPath><clipPath id="e33c6f88da"><path d="M 276.773438 129.292969 L 298.523438 129.292969 L 298.523438 151.792969 L 276.773438 151.792969 Z M 276.773438 129.292969 " clip-rule="nonzero"/></clipPath><clipPath id="14bfb98b6c"><path d="M 77.765625 164.125 L 87 164.125 L 87 186.625 L 77.765625 186.625 Z M 77.765625 164.125 " clip-rule="nonzero"/></clipPath><clipPath id="8ac0c4c947"><path d="M 77.765625 164.125 L 99.515625 164.125 L 99.515625 186.625 L 77.765625 186.625 Z M 77.765625 164.125 " clip-rule="nonzero"/></clipPath><clipPath id="c00fe86d58"><path d="M 102.488281 148.054688 L 128.300781 148.054688 L 128.300781 173.882812 L 102.488281 173.882812 Z M 102.488281 148.054688 " clip-rule="nonzero"/></clipPath><clipPath id="26b5f3cfb6"><path d="M 123 142.4375 L 133.988281 142.4375 L 133.988281 154 L 123 154 Z M 123 142.4375 " clip-rule="nonzero"/></clipPath><clipPath id="834a3c3822"><path d="M 132.617188 136.410156 L 158.425781 136.410156 L 158.425781 162.238281 L 132.617188 162.238281 Z M 132.617188 136.410156 " clip-rule="nonzero"/></clipPath><clipPath id="4c9b17cd4e"><path d="M 153 130.792969 L 164.117188 130.792969 L 164.117188 142 L 153 142 Z M 153 130.792969 " clip-rule="nonzero"/></clipPath><clipPath id="a615c68876"><path d="M 194.371094 123.675781 L 220.179688 123.675781 L 220.179688 149.503906 L 194.371094 149.503906 Z M 194.371094 123.675781 " clip-rule="nonzero"/></clipPath><clipPath id="836110b657"><path d="M 215 118.058594 L 225.871094 118.058594 L 225.871094 129 L 215 129 Z M 215 118.058594 " clip-rule="nonzero"/></clipPath><clipPath id="a7f4d0d0d1"><path d="M 224.371094 121.425781 L 250.179688 121.425781 L 250.179688 147.253906 L 224.371094 147.253906 Z M 224.371094 121.425781 " clip-rule="nonzero"/></clipPath><clipPath id="6d681d0f4f"><path d="M 245 115.808594 L 255.871094 115.808594 L 255.871094 127 L 245 127 Z M 245 115.808594 " clip-rule="nonzero"/></clipPath><clipPath id="1246a25841"><path d="M 252.191406 123.675781 L 278 123.675781 L 278 149.503906 L 252.191406 149.503906 Z M 252.191406 123.675781 " clip-rule="nonzero"/></clipPath><clipPath id="d08235ac03"><path d="M 272 118.058594 L 283.691406 118.058594 L 283.691406 129 L 272 129 Z M 272 118.058594 " clip-rule="nonzero"/></clipPath></defs><g clip-path="url(#0b2c6e1b43)"><path fill="#ffaf00" d="M 176.398438 129.210938 C 176.292969 141.804688 176.085938 142.011719 163.492188 142.113281 C 176.085938 142.21875 176.292969 142.425781 176.398438 155.019531 C 176.503906 142.425781 176.710938 142.21875 189.304688 142.113281 C 176.710938 142.011719 176.503906 141.804688 176.398438 129.210938 " fill-opacity="1" fill-rule="nonzero"/></g><g clip-path="url(#f91c429506)"><path fill="#ffaf00" d="M 189.703125 123.597656 C 189.65625 128.875 189.570312 128.960938 184.292969 129.007812 C 189.570312 129.050781 189.65625 129.136719 189.703125 134.414062 C 189.746094 129.136719 189.832031 129.050781 195.109375 129.007812 C 189.832031 128.960938 189.746094 128.875 189.703125 123.597656 " fill-opacity="1" fill-rule="nonzero"/></g><path fill="#ffaf00" d="M 182.46875 136.75 C 182.820312 136.75 183.109375 136.464844 183.109375 136.113281 C 183.109375 135.761719 182.820312 135.476562 182.46875 135.476562 C 182.117188 135.476562 181.832031 135.761719 181.832031 136.113281 C 181.832031 136.464844 182.117188 136.75 182.46875 136.75 " fill-opacity="1" fill-rule="nonzero"/><path fill="#ffaf00" d="M 169.511719 151.160156 C 168.984375 151.160156 168.554688 151.589844 168.554688 152.117188 C 168.554688 152.644531 168.984375 153.074219 169.511719 153.074219 C 170.039062 153.074219 170.46875 152.644531 170.46875 152.117188 C 170.46875 151.589844 170.039062 151.160156 169.511719 151.160156 " fill-opacity="1" fill-rule="nonzero"/><g clip-path="url(#aaf396167a)"><path fill="#2a74b8" d="M 334.128906 165.886719 C 331.445312 152.902344 314.339844 143.710938 285.871094 139.917969 L 285.871094 140.535156 C 312.867188 144.144531 330.816406 152.886719 333.527344 166.015625 C 336.742188 181.574219 317.863281 199.949219 285.871094 215.921875 C 282.140625 217.785156 278.230469 219.613281 274.148438 221.40625 C 273.539062 221.148438 273.027344 220.761719 272.609375 220.246094 C 272.191406 219.734375 271.914062 219.152344 271.78125 218.503906 L 269.722656 208.351562 L 267.574219 218.488281 C 267.492188 218.871094 267.359375 219.238281 267.167969 219.582031 C 266.980469 219.929688 266.746094 220.242188 266.46875 220.519531 C 266.1875 220.796875 265.875 221.027344 265.527344 221.210938 C 265.179688 221.398438 264.8125 221.53125 264.425781 221.609375 L 254.269531 223.664062 L 263.859375 225.699219 C 244.351562 233.429688 221.75 240.195312 197.355469 245.230469 C 157.195312 253.523438 119.636719 255.59375 91.355469 252.242188 C 62.832031 248.871094 43.746094 239.992188 40.945312 226.417969 C 38.25 213.386719 50.890625 197.972656 76.53125 183.015625 C 81.160156 180.3125 86.101562 177.691406 91.355469 175.148438 L 91.355469 174.46875 C 86.003906 177.054688 80.949219 179.726562 76.226562 182.484375 C 50.335938 197.585938 37.597656 213.234375 40.34375 226.542969 C 43.09375 239.855469 60.988281 249.175781 90.742188 252.792969 C 90.945312 252.816406 91.148438 252.839844 91.355469 252.863281 C 100.6875 253.925781 110.054688 254.441406 119.449219 254.402344 C 143.230469 254.402344 170.042969 251.496094 197.476562 245.828125 C 221.789062 240.8125 244.789062 234 264.910156 225.960938 C 265.582031 226.195312 266.148438 226.582031 266.617188 227.117188 C 267.082031 227.652344 267.386719 228.269531 267.527344 228.964844 L 269.585938 239.117188 L 271.734375 228.984375 C 271.816406 228.597656 271.949219 228.230469 272.140625 227.886719 C 272.328125 227.539062 272.5625 227.226562 272.84375 226.953125 C 273.121094 226.675781 273.433594 226.441406 273.78125 226.257812 C 274.128906 226.070312 274.496094 225.941406 274.882812 225.859375 L 285.039062 223.804688 L 275.0625 221.691406 C 278.789062 220.039062 282.390625 218.347656 285.871094 216.617188 C 290.207031 214.457031 294.332031 212.234375 298.246094 209.953125 C 324.128906 194.851562 336.875 179.203125 334.128906 165.886719 Z M 334.128906 165.886719 " fill-opacity="1" fill-rule="nonzero"/></g><path fill="#2a74b8" d="M 276.824219 209.023438 C 279.179688 209.023438 279.183594 205.359375 276.824219 205.359375 C 274.464844 205.359375 274.460938 209.023438 276.824219 209.023438 Z M 276.824219 209.023438 " fill-opacity="1" fill-rule="nonzero"/><path fill="#2a74b8" d="M 283.546875 197.640625 C 285.90625 197.640625 285.910156 193.976562 283.546875 193.976562 C 281.191406 193.976562 281.1875 197.640625 283.546875 197.640625 Z M 283.546875 197.640625 " fill-opacity="1" fill-rule="nonzero"/><path fill="#2a74b8" d="M 255.613281 234.847656 C 253.253906 234.847656 253.25 238.511719 255.613281 238.511719 C 257.96875 238.511719 257.972656 234.847656 255.613281 234.847656 Z M 255.613281 234.847656 " fill-opacity="1" fill-rule="nonzero"/><path stroke-linecap="butt" transform="matrix(0.75, 0, 0, 0.75, 99.201267, 172.805585)" fill="none" stroke-linejoin="miter" d="M 0.372269 24.092554 L 0.0493526 24.092554 L 0.0493526 30.227971 C 2.924353 32.780055 6.580603 33.998805 10.533728 33.998805 C 13.518104 33.998805 16.893104 33.175888 18.653521 30.800888 C 20.372271 28.431096 20.304562 24.483179 18.294145 22.326929 C 15.242062 19.092554 9.132687 19.556096 5.257686 17.514429 C 2.736853 16.181095 2.309769 13.998804 4.106645 12.129012 C 5.939978 10.295678 8.55977 9.82172 10.96602 10.217553 C 14.049354 10.72797 16.137895 12.733179 18.544146 16.217554 L 19.872271 12.733179 C 17.288937 10.618595 13.62227 9.425887 9.919145 9.425887 C 7.877478 9.425887 5.825395 9.858178 4.070186 10.72797 C 2.169144 11.691512 0.0493526 13.524845 0.0493526 16.04047 C 0.0493526 18.592554 2.377478 20.097762 4.320186 20.925887 C 7.518103 22.290471 11.393103 22.399846 14.413937 23.800888 C 16.210812 24.623804 17.752479 26.420679 17.648312 28.582138 C 17.507687 32.20193 13.481645 33.316513 10.721228 33.352972 C 5.939978 33.384222 1.695186 29.613388 0.372269 24.092554 Z M 40.018105 9.425887 L 22.486854 9.425887 L 20.981646 14.858179 L 21.304562 14.858179 C 22.419146 12.087345 25.830604 10.076928 28.742063 10.076928 L 35.601438 10.076928 L 20.762896 33.675888 L 20.762896 33.998805 L 39.799355 33.998805 L 41.887897 27.535263 L 41.559772 27.535263 C 40.231647 30.842555 36.320188 33.352972 32.799355 33.352972 L 25.007688 33.352972 Z M 52.976439 33.998805 L 56.643106 33.998805 L 60.41394 23.290471 L 64.148315 33.998805 L 67.814982 33.998805 L 75.752483 11.332137 C 76.111858 10.295678 76.794149 9.717553 77.945191 9.754012 L 77.945191 9.425887 C 76.252483 9.425887 73.663941 9.425887 71.945191 9.425887 L 71.945191 9.754012 C 73.059774 9.717553 73.700399 9.972762 74.059774 11.014428 C 74.137899 11.295678 74.242066 11.550887 74.309774 11.806095 C 74.533733 12.410262 74.497274 12.951929 74.278524 13.556095 L 67.455607 33.102972 L 59.877482 11.44672 C 59.439982 10.25922 60.085815 9.717553 61.273315 9.754012 L 61.273315 9.425887 L 54.018106 9.425887 L 54.018106 9.754012 C 55.273315 9.717553 55.85144 10.368595 56.247273 11.44672 L 60.054565 22.326929 L 56.283731 33.102972 L 48.705606 11.44672 C 48.268106 10.25922 48.913939 9.717553 50.101439 9.754012 L 50.101439 9.425887 L 42.84623 9.425887 L 42.84623 9.754012 C 44.101439 9.717553 44.679564 10.368595 45.075397 11.44672 Z M 92.726442 9.425887 L 89.096233 9.425887 L 81.127483 32.134222 C 80.768108 33.13943 80.080608 33.743597 78.934774 33.712347 L 78.934774 33.998805 C 80.627483 33.998805 83.247275 33.998805 85.002483 33.998805 L 85.002483 33.712347 C 83.851441 33.743597 83.16915 33.467555 82.809775 32.42068 C 82.736858 32.165472 82.632691 31.879013 82.564983 31.634221 C 82.346233 31.019638 82.377483 30.48318 82.564983 29.868596 L 83.320191 27.863388 C 84.10665 25.597763 87.018108 26.816513 88.413942 27.316513 C 91.288942 28.254013 93.330609 27.712346 94.596234 25.056096 L 97.033734 31.993596 C 97.429567 33.212347 96.856651 33.743597 95.637901 33.712347 L 95.637901 33.998805 L 102.893109 33.998805 L 102.893109 33.712347 C 101.601443 33.743597 100.986859 33.102972 100.627484 31.993596 Z M 94.377484 24.337346 C 93.054567 25.774846 91.221234 24.879013 89.559775 24.337346 C 87.195192 23.545679 85.398317 23.800888 84.143108 25.415471 L 89.455608 10.368595 Z M 125.512903 12.733179 C 123.101444 10.655053 119.689985 9.425887 116.351444 9.425887 C 109.528526 9.425887 103.960818 14.82172 103.960818 21.712346 C 103.960818 28.754013 109.309776 33.998805 116.351444 33.998805 C 118.83061 33.998805 121.200402 33.316513 123.174361 31.879013 C 124.471236 30.946721 125.512903 31.274846 125.945194 32.92068 L 126.268111 32.92068 L 126.268111 26.134221 C 126.268111 22.326929 127.023319 21.321721 128.564986 21.389429 L 128.564986 21.066512 L 120.549361 21.066512 L 120.549361 21.389429 C 122.096236 21.321721 122.851444 22.326929 122.851444 26.134221 L 122.851444 31.48318 C 117.325402 34.394638 110.064985 30.623805 107.950401 24.733179 C 106.221235 19.951929 106.835818 12.769637 112.288943 10.795678 C 116.059777 9.425887 120.481652 10.655053 124.184777 16.217554 Z M 134.908736 28.931096 L 134.908736 24.196721 C 135.663945 23.326929 137.174362 22.071721 138.538945 21.425887 C 140.731654 20.389429 141.882695 21.321721 142.637904 23.477971 C 143.533737 25.915471 144.216029 29.405055 145.512904 31.774846 C 146.189987 33.071722 147.231654 33.998805 148.997279 33.998805 C 150.038946 33.998805 151.075404 33.571722 151.580613 32.524847 L 151.325404 32.306097 C 150.606654 32.92068 149.783737 32.457138 149.283737 31.879013 C 147.986862 30.48318 146.512904 24.915471 145.830612 22.899846 C 145.294154 21.321721 144.143112 20.274846 142.091029 20.066512 C 145.471237 18.879012 149.028529 17.582137 149.028529 14.030054 C 149.028529 10.504012 145.512904 9.425887 142.601445 9.425887 L 129.200403 9.425887 L 129.200403 9.754012 C 130.747278 9.681095 131.497278 10.72797 131.497278 14.530054 L 131.497278 28.931096 C 131.497278 32.743597 130.747278 33.743597 129.200403 33.675888 L 129.200403 33.998805 L 137.21082 33.998805 L 137.21082 33.675888 C 135.663945 33.743597 134.908736 32.743597 134.908736 28.931096 Z M 134.908736 10.076928 L 139.908737 10.076928 C 142.419154 10.076928 145.617071 10.691512 145.585821 13.88422 C 145.585821 17.118596 140.58582 19.196721 138.252487 20.748804 C 136.997278 21.540471 135.851445 22.326929 134.908736 23.259221 Z M 164.93478 9.425887 C 171.721239 9.425887 177.221239 14.925887 177.221239 21.712346 C 177.221239 28.504013 171.721239 33.998805 164.93478 33.998805 C 158.148321 33.998805 152.648321 28.504013 152.648321 21.712346 C 152.648321 14.925887 158.148321 9.425887 164.93478 9.425887 Z M 160.981655 10.795678 C 156.382696 12.44672 154.445196 18.660262 156.637905 24.733179 C 158.830613 30.76443 164.283738 34.32693 168.882697 32.665472 C 173.450406 31.019638 175.424364 24.764429 173.231656 18.733179 C 171.038947 12.69672 165.538947 9.144637 160.981655 10.795678 Z M 160.981655 10.795678 " stroke="#ffaf00" stroke-width="0.853167" stroke-opacity="1" stroke-miterlimit="4"/><path stroke-linecap="butt" transform="matrix(0.75, 0, 0, 0.75, 99.201267, 172.805585)" fill="none" stroke-linejoin="miter" d="M 200.200407 28.931096 C 200.200407 32.743597 199.445199 33.743597 197.903532 33.675888 L 197.903532 33.998805 L 205.919158 33.998805 L 205.919158 33.675888 C 204.372283 33.743597 203.617074 32.743597 203.617074 28.931096 L 203.617074 14.530054 C 203.617074 10.72797 204.372283 9.681095 205.919158 9.754012 L 205.919158 9.425887 L 200.200407 9.425887 L 191.903532 33.102972 L 183.679573 9.425887 L 178.330614 9.425887 L 178.330614 9.754012 C 179.872281 9.681095 180.627489 10.72797 180.627489 14.530054 L 180.627489 28.931096 C 180.627489 32.743597 179.872281 33.743597 178.330614 33.675888 L 178.330614 33.998805 L 183.570198 33.998805 L 183.570198 33.675888 C 182.028531 33.743597 181.273323 32.743597 181.273323 28.931096 L 181.273323 12.951929 L 188.59624 33.998805 L 192.262907 33.998805 L 200.200407 11.373803 Z M 220.742075 9.425887 L 217.111867 9.425887 L 209.137908 32.134222 C 208.778533 33.13943 208.096241 33.743597 206.9452 33.712347 L 206.9452 33.998805 C 208.637908 33.998805 211.2577 33.998805 213.012908 33.998805 L 213.012908 33.712347 C 211.867075 33.743597 211.179575 33.467555 210.8202 32.42068 C 210.752491 32.165472 210.648325 31.879013 210.575408 31.634221 C 210.356658 31.019638 210.393116 30.48318 210.575408 29.868596 L 211.330616 27.863388 C 212.117075 25.597763 215.028533 26.816513 216.424367 27.316513 C 219.299367 28.254013 221.346242 27.712346 222.606659 25.056096 L 225.044159 31.993596 C 225.439992 33.212347 224.872284 33.743597 223.653534 33.712347 L 223.653534 33.998805 L 230.903534 33.998805 L 230.903534 33.712347 C 229.617076 33.743597 229.002493 33.102972 228.643118 31.993596 Z M 222.387909 24.337346 C 221.064992 25.774846 219.231659 24.879013 217.575409 24.337346 C 215.205617 23.545679 213.408742 23.800888 212.153533 25.415471 L 217.471242 10.368595 Z M 244.038952 28.931096 L 244.038952 10.076928 L 244.939994 10.076928 C 247.846244 10.076928 251.262911 12.087345 252.377494 14.858179 L 252.695203 14.858179 L 251.184786 9.425887 L 233.445201 9.425887 L 231.971243 14.858179 L 232.29416 14.858179 C 233.377493 12.087345 236.820202 10.076928 239.70041 10.076928 L 240.627493 10.076928 L 240.627493 28.931096 C 240.627493 32.743597 239.872285 33.743597 238.330618 33.675888 L 238.330618 33.998805 L 246.335827 33.998805 L 246.335827 33.675888 C 244.79416 33.743597 244.038952 32.743597 244.038952 28.931096 Z M 244.038952 28.931096 " stroke="#ffaf00" stroke-width="0.853167" stroke-opacity="1" stroke-miterlimit="4"/><g fill="#ffaf00" fill-opacity="1"><g transform="translate(99.236423, 198.305584)"><g><path d="M 0.242188 -7.433594 L 0 -7.433594 L 0 -2.828125 C 2.15625 -0.914062 4.902344 0 7.867188 0 C 10.101562 0 12.636719 -0.621094 13.953125 -2.398438 C 15.246094 -4.175781 15.195312 -7.140625 13.683594 -8.753906 C 11.394531 -11.179688 6.816406 -10.828125 3.90625 -12.367188 C 2.019531 -13.363281 1.695312 -15.003906 3.042969 -16.40625 C 4.417969 -17.78125 6.386719 -18.128906 8.191406 -17.835938 C 10.507812 -17.457031 12.070312 -15.949219 13.875 -13.335938 L 14.871094 -15.949219 C 12.929688 -17.539062 10.183594 -18.425781 7.410156 -18.425781 C 5.871094 -18.425781 4.335938 -18.105469 3.015625 -17.457031 C 1.589844 -16.730469 0 -15.355469 0 -13.46875 C 0 -11.558594 1.75 -10.425781 3.207031 -9.804688 C 5.605469 -8.78125 8.511719 -8.703125 10.777344 -7.652344 C 12.121094 -7.03125 13.28125 -5.683594 13.199219 -4.066406 C 13.09375 -1.347656 10.074219 -0.511719 8 -0.484375 C 4.417969 -0.457031 1.238281 -3.285156 0.242188 -7.433594 Z M 0.242188 -7.433594 "/></g></g></g><g fill="#ffaf00" fill-opacity="1"><g transform="translate(114.936457, 198.305584)"><g><path d="M 14.277344 -18.425781 L 1.132812 -18.425781 L 0 -14.359375 L 0.242188 -14.359375 C 1.078125 -16.433594 3.636719 -17.941406 5.820312 -17.941406 L 10.964844 -17.941406 L -0.160156 -0.242188 L -0.160156 0 L 14.117188 0 L 15.679688 -4.847656 L 15.4375 -4.847656 C 14.441406 -2.371094 11.503906 -0.484375 8.863281 -0.484375 L 3.015625 -0.484375 Z M 14.277344 -18.425781 "/></g></g></g><g fill="#ffaf00" fill-opacity="1"><g transform="translate(131.336663, 198.305584)"><g><path d="M 7.597656 0 L 10.34375 0 L 13.171875 -8.027344 L 15.976562 0 L 18.722656 0 L 24.675781 -17 C 24.945312 -17.78125 25.457031 -18.210938 26.320312 -18.183594 L 26.320312 -18.425781 C 25.054688 -18.425781 23.113281 -18.425781 21.820312 -18.425781 L 21.820312 -18.183594 C 22.65625 -18.210938 23.140625 -18.023438 23.410156 -17.242188 C 23.464844 -17.027344 23.546875 -16.835938 23.597656 -16.648438 C 23.761719 -16.191406 23.734375 -15.785156 23.574219 -15.328125 L 18.453125 -0.671875 L 12.769531 -16.917969 C 12.445312 -17.808594 12.929688 -18.210938 13.820312 -18.183594 L 13.820312 -18.425781 L 8.378906 -18.425781 L 8.378906 -18.183594 C 9.320312 -18.210938 9.753906 -17.726562 10.046875 -16.917969 L 12.902344 -8.753906 L 10.074219 -0.671875 L 4.390625 -16.917969 C 4.066406 -17.808594 4.554688 -18.210938 5.441406 -18.183594 L 5.441406 -18.425781 L 0 -18.425781 L 0 -18.183594 C 0.941406 -18.210938 1.375 -17.726562 1.671875 -16.917969 Z M 7.597656 0 "/></g></g></g><g fill="#ffaf00" fill-opacity="1"><g transform="translate(158.401046, 198.305584)"><g><path d="M 10.34375 -18.425781 L 7.625 -18.425781 L 1.644531 -1.402344 C 1.375 -0.648438 0.863281 -0.1875 0 -0.214844 L 0 0 C 1.265625 0 3.234375 0 4.554688 0 L 4.554688 -0.214844 C 3.691406 -0.1875 3.179688 -0.402344 2.910156 -1.183594 C 2.855469 -1.375 2.773438 -1.589844 2.722656 -1.777344 C 2.558594 -2.234375 2.585938 -2.640625 2.722656 -3.097656 L 3.285156 -4.605469 C 3.878906 -6.304688 6.0625 -5.386719 7.113281 -5.011719 C 9.265625 -4.308594 10.804688 -4.714844 11.746094 -6.707031 L 13.578125 -1.507812 C 13.875 -0.59375 13.441406 -0.1875 12.527344 -0.214844 L 12.527344 0 L 17.96875 0 L 17.96875 -0.214844 C 17 -0.1875 16.542969 -0.671875 16.273438 -1.507812 Z M 11.585938 -7.246094 C 10.585938 -6.167969 9.214844 -6.84375 7.972656 -7.246094 C 6.195312 -7.839844 4.847656 -7.652344 3.90625 -6.4375 L 7.894531 -17.726562 Z M 11.585938 -7.246094 "/></g></g></g><g fill="#ffaf00" fill-opacity="1"><g transform="translate(177.171072, 198.305584)"><g><path d="M 16.164062 -15.949219 C 14.359375 -17.511719 11.800781 -18.425781 9.292969 -18.425781 C 4.175781 -18.425781 0 -14.386719 0 -9.214844 C 0 -3.933594 4.015625 0 9.292969 0 C 11.152344 0 12.929688 -0.511719 14.414062 -1.589844 C 15.382812 -2.289062 16.164062 -2.046875 16.488281 -0.808594 L 16.730469 -0.808594 L 16.730469 -5.898438 C 16.730469 -8.753906 17.296875 -9.511719 18.453125 -9.457031 L 18.453125 -9.699219 L 12.445312 -9.699219 L 12.445312 -9.457031 C 13.605469 -9.511719 14.171875 -8.753906 14.171875 -5.898438 L 14.171875 -1.886719 C 10.023438 0.296875 4.578125 -2.53125 2.992188 -6.949219 C 1.695312 -10.535156 2.15625 -15.921875 6.25 -17.402344 C 9.078125 -18.425781 12.390625 -17.511719 15.167969 -13.335938 Z M 16.164062 -15.949219 "/></g></g></g><g fill="#ffaf00" fill-opacity="1"><g transform="translate(196.102677, 198.305584)"><g><path d="M 4.285156 -3.796875 L 4.285156 -7.355469 C 4.847656 -8 5.980469 -8.945312 7.003906 -9.429688 C 8.648438 -10.210938 9.511719 -9.511719 10.074219 -7.894531 C 10.75 -6.0625 11.261719 -3.449219 12.230469 -1.671875 C 12.742188 -0.699219 13.523438 0 14.84375 0 C 15.625 0 16.40625 -0.324219 16.785156 -1.105469 L 16.59375 -1.265625 C 16.054688 -0.808594 15.4375 -1.160156 15.058594 -1.589844 C 14.089844 -2.640625 12.984375 -6.816406 12.472656 -8.324219 C 12.070312 -9.511719 11.207031 -10.292969 9.671875 -10.453125 C 12.203125 -11.339844 14.871094 -12.3125 14.871094 -14.980469 C 14.871094 -17.617188 12.230469 -18.425781 10.046875 -18.425781 L 0 -18.425781 L 0 -18.183594 C 1.160156 -18.238281 1.722656 -17.457031 1.722656 -14.601562 L 1.722656 -3.796875 C 1.722656 -0.941406 1.160156 -0.1875 0 -0.242188 L 0 0 L 6.007812 0 L 6.007812 -0.242188 C 4.847656 -0.1875 4.285156 -0.941406 4.285156 -3.796875 Z M 4.285156 -17.941406 L 8.027344 -17.941406 C 9.914062 -17.941406 12.3125 -17.484375 12.285156 -15.085938 C 12.285156 -12.660156 8.539062 -11.097656 6.789062 -9.941406 C 5.847656 -9.347656 4.984375 -8.753906 4.285156 -8.054688 Z M 4.285156 -17.941406 "/></g></g></g><g fill="#ffaf00" fill-opacity="1"><g transform="translate(213.687793, 198.305584)"><g><path d="M 9.214844 -18.425781 C 14.304688 -18.425781 18.425781 -14.304688 18.425781 -9.214844 C 18.425781 -4.121094 14.304688 0 9.214844 0 C 4.121094 0 0 -4.121094 0 -9.214844 C 0 -14.304688 4.121094 -18.425781 9.214844 -18.425781 Z M 6.25 -17.402344 C 2.800781 -16.164062 1.347656 -11.503906 2.992188 -6.949219 C 4.632812 -2.425781 8.730469 0.242188 12.175781 -0.996094 C 15.597656 -2.234375 17.078125 -6.921875 15.4375 -11.449219 C 13.792969 -15.976562 9.671875 -18.640625 6.25 -17.402344 Z M 6.25 -17.402344 "/></g></g></g><g fill="#2a74b8" fill-opacity="1"><g transform="translate(232.947356, 198.305584)"><g><path d="M 16.40625 -3.796875 C 16.40625 -0.941406 15.839844 -0.1875 14.683594 -0.242188 L 14.683594 0 L 20.691406 0 L 20.691406 -0.242188 C 19.53125 -0.1875 18.964844 -0.941406 18.964844 -3.796875 L 18.964844 -14.601562 C 18.964844 -17.457031 19.53125 -18.238281 20.691406 -18.183594 L 20.691406 -18.425781 L 16.40625 -18.425781 L 10.183594 -0.671875 L 4.015625 -18.425781 L 0 -18.425781 L 0 -18.183594 C 1.160156 -18.238281 1.722656 -17.457031 1.722656 -14.601562 L 1.722656 -3.796875 C 1.722656 -0.941406 1.160156 -0.1875 0 -0.242188 L 0 0 L 3.933594 0 L 3.933594 -0.242188 C 2.773438 -0.1875 2.210938 -0.941406 2.210938 -3.796875 L 2.210938 -15.785156 L 7.703125 0 L 10.453125 0 L 16.40625 -16.972656 Z M 16.40625 -3.796875 "/></g></g></g><g fill="#2a74b8" fill-opacity="1"><g transform="translate(254.410359, 198.305584)"><g><path d="M 10.34375 -18.425781 L 7.625 -18.425781 L 1.644531 -1.402344 C 1.375 -0.648438 0.863281 -0.1875 0 -0.214844 L 0 0 C 1.265625 0 3.234375 0 4.554688 0 L 4.554688 -0.214844 C 3.691406 -0.1875 3.179688 -0.402344 2.910156 -1.183594 C 2.855469 -1.375 2.773438 -1.589844 2.722656 -1.777344 C 2.558594 -2.234375 2.585938 -2.640625 2.722656 -3.097656 L 3.285156 -4.605469 C 3.878906 -6.304688 6.0625 -5.386719 7.113281 -5.011719 C 9.265625 -4.308594 10.804688 -4.714844 11.746094 -6.707031 L 13.578125 -1.507812 C 13.875 -0.59375 13.441406 -0.1875 12.527344 -0.214844 L 12.527344 0 L 17.96875 0 L 17.96875 -0.214844 C 17 -0.1875 16.542969 -0.671875 16.273438 -1.507812 Z M 11.585938 -7.246094 C 10.585938 -6.167969 9.214844 -6.84375 7.972656 -7.246094 C 6.195312 -7.839844 4.847656 -7.652344 3.90625 -6.4375 L 7.894531 -17.726562 Z M 11.585938 -7.246094 "/></g></g></g><g fill="#2a74b8" fill-opacity="1"><g transform="translate(273.180385, 198.305584)"><g><path d="M 9.050781 -3.796875 L 9.050781 -17.941406 L 9.726562 -17.941406 C 11.90625 -17.941406 14.464844 -16.433594 15.300781 -14.359375 L 15.542969 -14.359375 L 14.414062 -18.425781 L 1.105469 -18.425781 L 0 -14.359375 L 0.242188 -14.359375 C 1.050781 -16.433594 3.636719 -17.941406 5.792969 -17.941406 L 6.492188 -17.941406 L 6.492188 -3.796875 C 6.492188 -0.941406 5.925781 -0.1875 4.769531 -0.242188 L 4.769531 0 L 10.777344 0 L 10.777344 -0.242188 C 9.617188 -0.1875 9.050781 -0.941406 9.050781 -3.796875 Z M 9.050781 -3.796875 "/></g></g></g><g clip-path="url(#f65b6f5b82)"><path fill="#ffaf00" d="M 263.261719 118.367188 C 263.328125 119.003906 263.453125 119.628906 263.628906 120.242188 C 263.804688 120.859375 264.027344 121.457031 264.304688 122.03125 C 264.582031 122.609375 264.90625 123.160156 265.277344 123.683594 C 265.644531 124.203125 266.058594 124.691406 266.507812 125.144531 C 266.960938 125.597656 267.449219 126.007812 267.972656 126.378906 C 268.496094 126.75 269.042969 127.070312 269.621094 127.347656 C 270.199219 127.625 270.796875 127.851562 271.410156 128.027344 C 272.027344 128.203125 272.652344 128.324219 273.289062 128.394531 C 277.339844 128.796875 281.398438 128.984375 285.46875 128.949219 C 281.398438 128.917969 277.339844 129.101562 273.289062 129.503906 C 272.652344 129.574219 272.027344 129.695312 271.410156 129.871094 C 270.796875 130.046875 270.199219 130.273438 269.621094 130.550781 C 269.042969 130.828125 268.496094 131.152344 267.972656 131.519531 C 267.449219 131.890625 266.960938 132.300781 266.511719 132.753906 C 266.058594 133.207031 265.644531 133.695312 265.277344 134.21875 C 264.90625 134.738281 264.582031 135.289062 264.304688 135.867188 C 264.027344 136.445312 263.804688 137.039062 263.628906 137.65625 C 263.453125 138.269531 263.328125 138.898438 263.261719 139.535156 C 262.855469 143.585938 262.671875 147.644531 262.703125 151.714844 C 262.738281 147.644531 262.554688 143.585938 262.148438 139.535156 C 262.078125 138.898438 261.957031 138.269531 261.78125 137.65625 C 261.605469 137.039062 261.378906 136.445312 261.101562 135.867188 C 260.828125 135.289062 260.503906 134.738281 260.132812 134.21875 C 259.761719 133.695312 259.351562 133.207031 258.898438 132.753906 C 258.445312 132.300781 257.960938 131.890625 257.4375 131.519531 C 256.914062 131.152344 256.363281 130.828125 255.789062 130.550781 C 255.210938 130.273438 254.613281 130.046875 254 129.871094 C 253.382812 129.695312 252.757812 129.574219 252.121094 129.503906 C 248.070312 129.101562 244.007812 128.917969 239.9375 128.949219 C 244.007812 128.984375 248.070312 128.796875 252.121094 128.394531 C 252.757812 128.324219 253.382812 128.203125 254 128.027344 C 254.613281 127.851562 255.210938 127.625 255.789062 127.347656 C 256.363281 127.070312 256.914062 126.746094 257.4375 126.378906 C 257.960938 126.007812 258.445312 125.597656 258.898438 125.144531 C 259.351562 124.691406 259.761719 124.203125 260.132812 123.683594 C 260.503906 123.160156 260.828125 122.609375 261.101562 122.03125 C 261.378906 121.457031 261.605469 120.859375 261.78125 120.242188 C 261.957031 119.628906 262.078125 119.003906 262.148438 118.367188 C 262.554688 114.316406 262.738281 110.253906 262.703125 106.183594 C 262.671875 110.253906 262.855469 114.316406 263.261719 118.367188 Z M 263.261719 118.367188 " fill-opacity="1" fill-rule="nonzero"/></g><g clip-path="url(#e33c6f88da)"><path fill="#ffaf00" d="M 288.675781 135.113281 C 288.746094 135.761719 288.921875 136.382812 289.207031 136.96875 C 289.488281 137.558594 289.859375 138.082031 290.320312 138.542969 C 290.78125 139.003906 291.308594 139.378906 291.894531 139.660156 C 292.484375 139.941406 293.101562 140.117188 293.75 140.1875 C 295.800781 140.394531 297.855469 140.488281 299.914062 140.46875 C 297.855469 140.453125 295.800781 140.546875 293.75 140.75 C 293.101562 140.820312 292.484375 141 291.894531 141.28125 C 291.308594 141.5625 290.78125 141.933594 290.320312 142.394531 C 289.859375 142.855469 289.488281 143.382812 289.207031 143.96875 C 288.921875 144.558594 288.746094 145.175781 288.675781 145.824219 C 288.472656 147.875 288.378906 149.929688 288.394531 151.992188 C 288.414062 149.929688 288.320312 147.875 288.113281 145.824219 C 288.042969 145.175781 287.867188 144.558594 287.585938 143.96875 C 287.304688 143.382812 286.929688 142.855469 286.46875 142.394531 C 286.007812 141.933594 285.484375 141.5625 284.894531 141.28125 C 284.308594 141 283.6875 140.820312 283.039062 140.75 C 280.988281 140.546875 278.933594 140.453125 276.875 140.46875 C 278.933594 140.488281 280.988281 140.394531 283.039062 140.1875 C 283.6875 140.117188 284.308594 139.941406 284.894531 139.660156 C 285.484375 139.378906 286.007812 139.003906 286.46875 138.542969 C 286.929688 138.082031 287.304688 137.558594 287.585938 136.96875 C 287.867188 136.382812 288.042969 135.761719 288.113281 135.113281 C 288.320312 133.0625 288.414062 131.007812 288.398438 128.949219 C 288.378906 131.007812 288.472656 133.0625 288.675781 135.113281 Z M 288.675781 135.113281 " fill-opacity="1" fill-rule="nonzero"/></g><g clip-path="url(#14bfb98b6c)"><path fill="#ffaf00" d="M 64.253906 153.195312 C 64.324219 153.832031 64.445312 154.457031 64.621094 155.074219 C 64.796875 155.691406 65.023438 156.285156 65.300781 156.863281 C 65.578125 157.441406 65.898438 157.988281 66.269531 158.511719 C 66.640625 159.035156 67.050781 159.523438 67.503906 159.976562 C 67.957031 160.425781 68.445312 160.839844 68.964844 161.207031 C 69.488281 161.578125 70.039062 161.902344 70.613281 162.179688 C 71.191406 162.457031 71.789062 162.679688 72.402344 162.855469 C 73.019531 163.03125 73.644531 163.15625 74.28125 163.226562 C 78.332031 163.628906 82.394531 163.8125 86.464844 163.78125 C 82.394531 163.746094 78.332031 163.933594 74.28125 164.335938 C 73.644531 164.40625 73.019531 164.527344 72.402344 164.703125 C 71.789062 164.878906 71.191406 165.105469 70.613281 165.382812 C 70.039062 165.660156 69.488281 165.980469 68.964844 166.351562 C 68.445312 166.722656 67.957031 167.132812 67.503906 167.585938 C 67.050781 168.039062 66.640625 168.527344 66.269531 169.046875 C 65.898438 169.570312 65.578125 170.121094 65.300781 170.695312 C 65.023438 171.273438 64.796875 171.871094 64.621094 172.484375 C 64.445312 173.101562 64.324219 173.726562 64.253906 174.363281 C 63.851562 178.414062 63.664062 182.476562 63.699219 186.546875 C 63.730469 182.476562 63.546875 178.414062 63.144531 174.363281 C 63.074219 173.726562 62.949219 173.101562 62.773438 172.484375 C 62.597656 171.871094 62.375 171.273438 62.097656 170.695312 C 61.820312 170.121094 61.496094 169.570312 61.125 169.046875 C 60.757812 168.527344 60.34375 168.039062 59.894531 167.585938 C 59.441406 167.132812 58.953125 166.722656 58.429688 166.351562 C 57.90625 165.980469 57.359375 165.65625 56.78125 165.382812 C 56.203125 165.105469 55.609375 164.878906 54.992188 164.703125 C 54.375 164.527344 53.75 164.40625 53.113281 164.335938 C 49.0625 163.929688 45.003906 163.746094 40.933594 163.78125 C 45.003906 163.8125 49.0625 163.628906 53.113281 163.222656 C 53.75 163.15625 54.375 163.03125 54.992188 162.855469 C 55.609375 162.679688 56.203125 162.457031 56.78125 162.179688 C 57.359375 161.902344 57.90625 161.578125 58.429688 161.207031 C 58.953125 160.839844 59.441406 160.425781 59.894531 159.976562 C 60.34375 159.523438 60.757812 159.035156 61.125 158.511719 C 61.496094 157.988281 61.820312 157.441406 62.097656 156.863281 C 62.375 156.285156 62.597656 155.691406 62.773438 155.074219 C 62.949219 154.457031 63.074219 153.832031 63.144531 153.195312 C 63.546875 149.144531 63.730469 145.085938 63.699219 141.015625 C 63.664062 145.085938 63.851562 149.144531 64.253906 153.195312 Z M 64.253906 153.195312 " fill-opacity="1" fill-rule="nonzero"/></g><g clip-path="url(#8ac0c4c947)"><path fill="#ffaf00" d="M 89.671875 169.945312 C 89.742188 170.59375 89.917969 171.210938 90.199219 171.800781 C 90.480469 172.386719 90.851562 172.914062 91.316406 173.375 C 91.777344 173.835938 92.300781 174.207031 92.890625 174.488281 C 93.476562 174.773438 94.097656 174.949219 94.746094 175.019531 C 96.792969 175.222656 98.847656 175.316406 100.910156 175.300781 C 98.847656 175.285156 96.792969 175.378906 94.746094 175.582031 C 94.097656 175.652344 93.476562 175.828125 92.890625 176.109375 C 92.300781 176.394531 91.777344 176.765625 91.316406 177.226562 C 90.851562 177.6875 90.480469 178.210938 90.199219 178.800781 C 89.917969 179.390625 89.742188 180.007812 89.671875 180.65625 C 89.464844 182.707031 89.371094 184.761719 89.390625 186.820312 C 89.40625 184.761719 89.3125 182.707031 89.109375 180.65625 C 89.039062 180.007812 88.859375 179.390625 88.578125 178.800781 C 88.296875 178.210938 87.925781 177.6875 87.464844 177.226562 C 87 176.765625 86.476562 176.394531 85.890625 176.109375 C 85.300781 175.828125 84.683594 175.652344 84.03125 175.582031 C 81.984375 175.378906 79.929688 175.285156 77.867188 175.300781 C 79.929688 175.316406 81.984375 175.222656 84.03125 175.019531 C 84.683594 174.949219 85.300781 174.773438 85.890625 174.488281 C 86.476562 174.207031 87 173.835938 87.464844 173.375 C 87.925781 172.914062 88.296875 172.386719 88.578125 171.800781 C 88.859375 171.210938 89.039062 170.59375 89.109375 169.945312 C 89.3125 167.894531 89.40625 165.839844 89.390625 163.78125 C 89.375 165.839844 89.464844 167.894531 89.671875 169.945312 Z M 89.671875 169.945312 " fill-opacity="1" fill-rule="nonzero"/></g><g clip-path="url(#c00fe86d58)"><path fill="#ffaf00" d="M 115.394531 148.070312 C 115.292969 160.664062 115.082031 160.871094 102.488281 160.976562 C 115.082031 161.082031 115.292969 161.289062 115.394531 173.882812 C 115.5 161.289062 115.707031 161.082031 128.300781 160.976562 C 115.707031 160.871094 115.5 160.664062 115.394531 148.070312 " fill-opacity="1" fill-rule="nonzero"/></g><g clip-path="url(#26b5f3cfb6)"><path fill="#ffaf00" d="M 128.699219 142.460938 C 128.65625 147.738281 128.566406 147.824219 123.289062 147.867188 C 128.566406 147.910156 128.65625 148 128.699219 153.277344 C 128.742188 148 128.828125 147.910156 134.105469 147.867188 C 128.828125 147.824219 128.742188 147.738281 128.699219 142.460938 " fill-opacity="1" fill-rule="nonzero"/></g><path fill="#ffaf00" d="M 121.46875 155.613281 C 121.820312 155.613281 122.105469 155.328125 122.105469 154.976562 C 122.105469 154.625 121.820312 154.339844 121.46875 154.339844 C 121.113281 154.339844 120.828125 154.625 120.828125 154.976562 C 120.828125 155.328125 121.113281 155.613281 121.46875 155.613281 " fill-opacity="1" fill-rule="nonzero"/><path fill="#ffaf00" d="M 108.507812 170.023438 C 107.980469 170.023438 107.554688 170.449219 107.554688 170.980469 C 107.554688 171.507812 107.980469 171.933594 108.507812 171.933594 C 109.035156 171.933594 109.464844 171.507812 109.464844 170.980469 C 109.464844 170.449219 109.035156 170.023438 108.507812 170.023438 " fill-opacity="1" fill-rule="nonzero"/><g clip-path="url(#834a3c3822)"><path fill="#ffaf00" d="M 145.523438 136.425781 C 145.417969 149.019531 145.210938 149.226562 132.617188 149.332031 C 145.210938 149.4375 145.417969 149.644531 145.523438 162.238281 C 145.625 149.644531 145.832031 149.4375 158.425781 149.332031 C 145.832031 149.226562 145.625 149.019531 145.523438 136.425781 " fill-opacity="1" fill-rule="nonzero"/></g><g clip-path="url(#4c9b17cd4e)"><path fill="#ffaf00" d="M 158.824219 130.816406 C 158.78125 136.09375 158.695312 136.179688 153.417969 136.222656 C 158.695312 136.265625 158.78125 136.355469 158.824219 141.632812 C 158.867188 136.355469 158.957031 136.265625 164.234375 136.222656 C 158.957031 136.179688 158.867188 136.09375 158.824219 130.816406 " fill-opacity="1" fill-rule="nonzero"/></g><path fill="#ffaf00" d="M 151.59375 143.96875 C 151.945312 143.96875 152.230469 143.683594 152.230469 143.332031 C 152.230469 142.980469 151.945312 142.695312 151.59375 142.695312 C 151.242188 142.695312 150.957031 142.980469 150.957031 143.332031 C 150.957031 143.683594 151.242188 143.96875 151.59375 143.96875 " fill-opacity="1" fill-rule="nonzero"/><path fill="#ffaf00" d="M 138.636719 158.378906 C 138.105469 158.378906 137.679688 158.804688 137.679688 159.335938 C 137.679688 159.863281 138.105469 160.289062 138.636719 160.289062 C 139.164062 160.289062 139.589844 159.863281 139.589844 159.335938 C 139.589844 158.804688 139.164062 158.378906 138.636719 158.378906 " fill-opacity="1" fill-rule="nonzero"/><g clip-path="url(#a615c68876)"><path fill="#ffaf00" d="M 207.273438 123.691406 C 207.171875 136.285156 206.960938 136.492188 194.371094 136.597656 C 206.960938 136.703125 207.171875 136.910156 207.273438 149.503906 C 207.378906 136.910156 207.585938 136.703125 220.179688 136.597656 C 207.585938 136.492188 207.378906 136.285156 207.273438 123.691406 " fill-opacity="1" fill-rule="nonzero"/></g><g clip-path="url(#836110b657)"><path fill="#ffaf00" d="M 220.578125 118.082031 C 220.535156 123.359375 220.449219 123.445312 215.171875 123.488281 C 220.449219 123.53125 220.535156 123.621094 220.578125 128.898438 C 220.621094 123.621094 220.707031 123.53125 225.988281 123.488281 C 220.707031 123.445312 220.621094 123.359375 220.578125 118.082031 " fill-opacity="1" fill-rule="nonzero"/></g><path fill="#ffaf00" d="M 213.347656 131.234375 C 213.699219 131.234375 213.984375 130.949219 213.984375 130.597656 C 213.984375 130.246094 213.699219 129.960938 213.347656 129.960938 C 212.996094 129.960938 212.710938 130.246094 212.710938 130.597656 C 212.710938 130.949219 212.996094 131.234375 213.347656 131.234375 " fill-opacity="1" fill-rule="nonzero"/><path fill="#ffaf00" d="M 200.386719 145.644531 C 199.859375 145.644531 199.433594 146.070312 199.433594 146.601562 C 199.433594 147.128906 199.859375 147.554688 200.386719 147.554688 C 200.917969 147.554688 201.34375 147.128906 201.34375 146.601562 C 201.34375 146.070312 200.917969 145.644531 200.386719 145.644531 " fill-opacity="1" fill-rule="nonzero"/><g clip-path="url(#a7f4d0d0d1)"><path fill="#ffaf00" d="M 237.273438 121.441406 C 237.171875 134.035156 236.960938 134.242188 224.371094 134.347656 C 236.960938 134.453125 237.171875 134.660156 237.273438 147.253906 C 237.378906 134.660156 237.585938 134.453125 250.179688 134.347656 C 237.585938 134.242188 237.378906 134.035156 237.273438 121.441406 " fill-opacity="1" fill-rule="nonzero"/></g><g clip-path="url(#6d681d0f4f)"><path fill="#ffaf00" d="M 250.578125 115.832031 C 250.535156 121.109375 250.449219 121.195312 245.171875 121.238281 C 250.449219 121.28125 250.535156 121.371094 250.578125 126.648438 C 250.621094 121.371094 250.707031 121.28125 255.988281 121.238281 C 250.707031 121.195312 250.621094 121.109375 250.578125 115.832031 " fill-opacity="1" fill-rule="nonzero"/></g><path fill="#ffaf00" d="M 243.347656 128.984375 C 243.699219 128.984375 243.984375 128.699219 243.984375 128.347656 C 243.984375 127.996094 243.699219 127.710938 243.347656 127.710938 C 242.996094 127.710938 242.710938 127.996094 242.710938 128.347656 C 242.710938 128.699219 242.996094 128.984375 243.347656 128.984375 " fill-opacity="1" fill-rule="nonzero"/><path fill="#ffaf00" d="M 230.386719 143.394531 C 229.859375 143.394531 229.433594 143.820312 229.433594 144.351562 C 229.433594 144.878906 229.859375 145.304688 230.386719 145.304688 C 230.917969 145.304688 231.34375 144.878906 231.34375 144.351562 C 231.34375 143.820312 230.917969 143.394531 230.386719 143.394531 " fill-opacity="1" fill-rule="nonzero"/><g clip-path="url(#1246a25841)"><path fill="#ffaf00" d="M 265.097656 123.691406 C 264.992188 136.285156 264.785156 136.492188 252.191406 136.597656 C 264.785156 136.703125 264.992188 136.910156 265.097656 149.503906 C 265.199219 136.910156 265.410156 136.703125 278 136.597656 C 265.410156 136.492188 265.199219 136.285156 265.097656 123.691406 " fill-opacity="1" fill-rule="nonzero"/></g><g clip-path="url(#d08235ac03)"><path fill="#ffaf00" d="M 278.398438 118.082031 C 278.355469 123.359375 278.269531 123.445312 272.992188 123.488281 C 278.269531 123.53125 278.355469 123.621094 278.398438 128.898438 C 278.445312 123.621094 278.53125 123.53125 283.808594 123.488281 C 278.53125 123.445312 278.445312 123.359375 278.398438 118.082031 " fill-opacity="1" fill-rule="nonzero"/></g><path fill="#ffaf00" d="M 271.167969 131.234375 C 271.519531 131.234375 271.804688 130.949219 271.804688 130.597656 C 271.804688 130.246094 271.519531 129.960938 271.167969 129.960938 C 270.816406 129.960938 270.53125 130.246094 270.53125 130.597656 C 270.53125 130.949219 270.816406 131.234375 271.167969 131.234375 " fill-opacity="1" fill-rule="nonzero"/><path fill="#ffaf00" d="M 258.210938 145.644531 C 257.683594 145.644531 257.253906 146.070312 257.253906 146.601562 C 257.253906 147.128906 257.683594 147.554688 258.210938 147.554688 C 258.738281 147.554688 259.164062 147.128906 259.164062 146.601562 C 259.164062 146.070312 258.738281 145.644531 258.210938 145.644531 " fill-opacity="1" fill-rule="nonzero"/></svg>